<svg xmlns="http://www.w3.org/2000/svg" xmlns:xlink="http://www.w3.org/1999/xlink" width="500" zoomAndPan="magnify" viewBox="0 0 375 374.999991" height="500" preserveAspectRatio="xMidYMid meet" version="1.0"><defs><g/><clipPath id="33727742fa"><path d="M 261.179688 159.328125 L 266 159.328125 L 266 196.078125 L 261.179688 196.078125 Z M 261.179688 159.328125 " clip-rule="nonzero"/></clipPath><clipPath id="0becccf909"><path d="M 264 161 L 286.679688 161 L 286.679688 178 L 264 178 Z M 264 161 " clip-rule="nonzero"/></clipPath></defs><rect x="-37.5" width="450" fill="#ffffff" y="-37.499999" height="449.999989" fill-opacity="1"/><rect x="-37.5" width="450" fill="#ffffff" y="-37.499999" height="449.999989" fill-opacity="1"/><rect x="-37.5" width="450" fill="#f4f4f4" y="-37.499999" height="449.999989" fill-opacity="1"/><g clip-path="url(#33727742fa)"><path fill="#0e0d0c" d="M 264.257812 159.328125 L 262.023438 159.328125 C 261.574219 159.328125 261.210938 159.699219 261.210938 160.15625 C 261.210938 160.613281 261.574219 160.984375 262.023438 160.984375 L 262.566406 160.984375 L 262.566406 196.078125 L 263.714844 196.078125 L 263.714844 160.984375 L 264.257812 160.984375 C 264.707031 160.984375 265.070312 160.613281 265.070312 160.15625 C 265.070312 159.699219 264.707031 159.328125 264.257812 159.328125 Z M 264.257812 159.328125 " fill-opacity="1" fill-rule="nonzero"/></g><g clip-path="url(#0becccf909)"><path fill="#0e0d0c" d="M 264.425781 161.550781 L 286.167969 169.332031 L 264.425781 177.113281 Z M 264.425781 161.550781 " fill-opacity="1" fill-rule="nonzero"/></g><g fill="#000000" fill-opacity="1"><g transform="translate(121.719239, 191.888015)"><g><path d="M 2.886719 0 L 14.203125 0 C 19.085938 0 22.386719 -2.683594 22.386719 -6.738281 C 22.386719 -9.320312 21.046875 -11.382812 18.777344 -12.378906 C 20.597656 -13.445312 21.664062 -15.335938 21.664062 -17.605469 C 21.664062 -21.5625 18.535156 -24.070312 13.652344 -24.070312 L 2.886719 -24.070312 Z M 8.289062 -4.332031 L 8.289062 -10.109375 L 13.375 -10.109375 C 15.542969 -10.109375 16.78125 -9.042969 16.78125 -7.222656 C 16.78125 -5.398438 15.542969 -4.332031 13.375 -4.332031 Z M 8.289062 -14.269531 L 8.289062 -19.738281 L 12.828125 -19.738281 C 14.925781 -19.738281 16.09375 -18.777344 16.09375 -17.023438 C 16.09375 -15.269531 14.925781 -14.269531 12.828125 -14.269531 Z M 8.289062 -14.269531 "/></g></g></g><g fill="#000000" fill-opacity="1"><g transform="translate(145.409046, 191.888015)"><g><path d="M 12.722656 0.480469 C 18.980469 0.480469 22.800781 -3.4375 22.800781 -9.902344 L 22.800781 -24.070312 L 17.332031 -24.070312 L 17.332031 -10.28125 C 17.332031 -6.601562 15.785156 -4.710938 12.722656 -4.710938 C 9.664062 -4.710938 8.117188 -6.601562 8.117188 -10.28125 L 8.117188 -24.070312 L 2.648438 -24.070312 L 2.648438 -9.902344 C 2.648438 -3.4375 6.464844 0.480469 12.722656 0.480469 Z M 12.722656 0.480469 "/></g></g></g><g fill="#000000" fill-opacity="1"><g transform="translate(170.852372, 191.888015)"><g><path d="M 2.886719 0 L 8.355469 0 L 8.355469 -8.289062 L 17.089844 -8.289062 L 17.089844 -13.101562 L 8.355469 -13.101562 L 8.355469 -19.121094 L 17.984375 -19.121094 L 17.984375 -24.070312 L 2.886719 -24.070312 Z M 2.886719 0 "/></g></g></g><g fill="#000000" fill-opacity="1"><g transform="translate(190.347462, 191.888015)"><g><path d="M 2.886719 0 L 8.355469 0 L 8.355469 -8.289062 L 17.089844 -8.289062 L 17.089844 -13.101562 L 8.355469 -13.101562 L 8.355469 -19.121094 L 17.984375 -19.121094 L 17.984375 -24.070312 L 2.886719 -24.070312 Z M 2.886719 0 "/></g></g></g><g fill="#000000" fill-opacity="1"><g transform="translate(209.842551, 191.888015)"><g><path d="M 10.625 0.480469 C 16.023438 0.480469 19.53125 -2.542969 19.53125 -7.253906 C 19.53125 -11.246094 16.917969 -14.132812 12.929688 -14.753906 L 18.535156 -20.355469 L 18.535156 -24.070312 L 2.132812 -24.070312 L 2.132812 -19.359375 L 11.417969 -19.359375 L 6.328125 -14.203125 L 6.328125 -11.003906 L 10.558594 -11.003906 C 12.828125 -11.003906 14.304688 -9.699219 14.304688 -7.667969 C 14.304688 -5.640625 12.828125 -4.332031 10.558594 -4.332031 C 8.320312 -4.332031 6.878906 -5.570312 6.773438 -7.53125 L 1.546875 -7.53125 C 1.753906 -2.578125 5.191406 0.480469 10.625 0.480469 Z M 10.625 0.480469 "/></g></g></g><g fill="#000000" fill-opacity="1"><g transform="translate(231.228696, 191.888015)"><g><path d="M 2.886719 0 L 8.355469 0 L 8.355469 -7.496094 L 11.96875 -7.496094 L 16.265625 0 L 22.59375 0 L 17.605469 -8.355469 C 20.496094 -9.628906 22.179688 -12.242188 22.179688 -15.785156 C 22.179688 -20.90625 18.671875 -24.070312 13.171875 -24.070312 L 2.886719 -24.070312 Z M 8.289062 -12.105469 L 8.289062 -19.394531 L 12.449219 -19.394531 C 15.128906 -19.394531 16.644531 -18.085938 16.644531 -15.75 C 16.644531 -13.410156 15.128906 -12.105469 12.449219 -12.105469 Z M 8.289062 -12.105469 "/></g></g></g><g fill="#000000" fill-opacity="1"><g transform="translate(121.719239, 212.676337)"><g><path d="M 4.757812 0.148438 C 6.722656 0.148438 8.316406 -1.039062 8.800781 -2.839844 L 7.726562 -2.839844 C 7.308594 -1.628906 6.167969 -0.867188 4.792969 -0.867188 C 2.992188 -0.867188 1.710938 -2.171875 1.710938 -4.042969 C 1.710938 -5.914062 2.992188 -7.21875 4.792969 -7.21875 C 6.132812 -7.21875 7.230469 -6.5 7.644531 -5.335938 L 8.730469 -5.335938 C 8.199219 -7.113281 6.664062 -8.234375 4.757812 -8.234375 C 2.378906 -8.234375 0.667969 -6.480469 0.667969 -4.042969 C 0.667969 -1.605469 2.378906 0.148438 4.757812 0.148438 Z M 4.757812 0.148438 "/></g></g></g><g fill="#000000" fill-opacity="1"><g transform="translate(131.141349, 212.676337)"><g><path d="M 0.195312 0 L 1.28125 0 L 2.019531 -1.835938 L 5.960938 -1.835938 L 6.722656 0 L 7.796875 0 L 4.46875 -8.082031 L 3.523438 -8.082031 Z M 2.414062 -2.78125 L 3.996094 -6.664062 L 5.578125 -2.78125 Z M 2.414062 -2.78125 "/></g></g></g><g fill="#000000" fill-opacity="1"><g transform="translate(139.131673, 212.676337)"><g><path d="M 1.179688 0 L 2.195312 0 L 2.195312 -2.65625 L 3.914062 -2.65625 C 5.738281 -2.65625 6.917969 -3.707031 6.917969 -5.371094 C 6.917969 -7.023438 5.738281 -8.082031 3.914062 -8.082031 L 1.179688 -8.082031 Z M 2.195312 -3.601562 L 2.195312 -7.113281 L 3.890625 -7.113281 C 5.195312 -7.113281 5.878906 -6.511719 5.878906 -5.359375 C 5.878906 -4.203125 5.195312 -3.601562 3.890625 -3.601562 Z M 2.195312 -3.601562 "/></g></g></g><g fill="#000000" fill-opacity="1"><g transform="translate(146.510013, 212.676337)"><g><path d="M 3.128906 0 L 4.144531 0 L 4.144531 -7.113281 L 6.871094 -7.113281 L 6.871094 -8.082031 L 0.394531 -8.082031 L 0.394531 -7.113281 L 3.128906 -7.113281 Z M 3.128906 0 "/></g></g></g><g fill="#000000" fill-opacity="1"><g transform="translate(153.784439, 212.676337)"><g><path d="M 4.203125 0.136719 C 6.15625 0.136719 7.332031 -1.144531 7.332031 -3.292969 L 7.332031 -8.082031 L 6.316406 -8.082031 L 6.316406 -3.359375 C 6.316406 -1.710938 5.589844 -0.855469 4.203125 -0.855469 C 2.828125 -0.855469 2.089844 -1.710938 2.089844 -3.359375 L 2.089844 -8.082031 L 1.085938 -8.082031 L 1.085938 -3.292969 C 1.085938 -1.144531 2.253906 0.136719 4.203125 0.136719 Z M 4.203125 0.136719 "/></g></g></g><g fill="#000000" fill-opacity="1"><g transform="translate(162.20199, 212.676337)"><g><path d="M 1.179688 0 L 2.195312 0 L 2.195312 -2.898438 L 3.972656 -2.898438 L 5.949219 0 L 7.171875 0 L 5.140625 -3.003906 C 6.316406 -3.292969 7.042969 -4.179688 7.042969 -5.484375 C 7.042969 -7.089844 5.9375 -8.082031 4.261719 -8.082031 L 1.179688 -8.082031 Z M 2.195312 -3.867188 L 2.195312 -7.113281 L 4.144531 -7.113281 C 5.324219 -7.113281 6.003906 -6.511719 6.003906 -5.484375 C 6.003906 -4.457031 5.324219 -3.867188 4.144531 -3.867188 Z M 2.195312 -3.867188 "/></g></g></g><g fill="#000000" fill-opacity="1"><g transform="translate(170.065299, 212.676337)"><g><path d="M 1.179688 0 L 6.214844 0 L 6.214844 -0.945312 L 2.195312 -0.945312 L 2.195312 -3.648438 L 5.796875 -3.648438 L 5.796875 -4.585938 L 2.195312 -4.585938 L 2.195312 -7.136719 L 6.085938 -7.136719 L 6.085938 -8.082031 L 1.179688 -8.082031 Z M 1.179688 0 "/></g></g></g><g fill="#000000" fill-opacity="1"><g transform="translate(177.027962, 212.676337)"><g/></g></g><g fill="#000000" fill-opacity="1"><g transform="translate(179.891545, 212.676337)"><g><path d="M 3.128906 0 L 4.144531 0 L 4.144531 -7.113281 L 6.871094 -7.113281 L 6.871094 -8.082031 L 0.394531 -8.082031 L 0.394531 -7.113281 L 3.128906 -7.113281 Z M 3.128906 0 "/></g></g></g><g fill="#000000" fill-opacity="1"><g transform="translate(187.165971, 212.676337)"><g><path d="M 6.480469 0 L 7.496094 0 L 7.496094 -8.082031 L 6.480469 -8.082031 L 6.480469 -4.609375 L 2.195312 -4.609375 L 2.195312 -8.082031 L 1.179688 -8.082031 L 1.179688 0 L 2.195312 0 L 2.195312 -3.636719 L 6.480469 -3.636719 Z M 6.480469 0 "/></g></g></g><g fill="#000000" fill-opacity="1"><g transform="translate(195.837541, 212.676337)"><g><path d="M 1.179688 0 L 6.214844 0 L 6.214844 -0.945312 L 2.195312 -0.945312 L 2.195312 -3.648438 L 5.796875 -3.648438 L 5.796875 -4.585938 L 2.195312 -4.585938 L 2.195312 -7.136719 L 6.085938 -7.136719 L 6.085938 -8.082031 L 1.179688 -8.082031 Z M 1.179688 0 "/></g></g></g><g fill="#000000" fill-opacity="1"><g transform="translate(202.800205, 212.676337)"><g/></g></g><g fill="#000000" fill-opacity="1"><g transform="translate(205.663787, 212.676337)"><g><path d="M 1.179688 0 L 2.195312 0 L 2.195312 -3.40625 L 5.507812 -3.40625 L 5.507812 -4.34375 L 2.195312 -4.34375 L 2.195312 -7.136719 L 5.808594 -7.136719 L 5.808594 -8.082031 L 1.179688 -8.082031 Z M 1.179688 0 "/></g></g></g><g fill="#000000" fill-opacity="1"><g transform="translate(212.10685, 212.676337)"><g><path d="M 1.179688 0 L 6.121094 0 L 6.121094 -0.96875 L 2.195312 -0.96875 L 2.195312 -8.082031 L 1.179688 -8.082031 Z M 1.179688 0 "/></g></g></g><g fill="#000000" fill-opacity="1"><g transform="translate(218.584555, 212.676337)"><g><path d="M 0.195312 0 L 1.28125 0 L 2.019531 -1.835938 L 5.960938 -1.835938 L 6.722656 0 L 7.796875 0 L 4.46875 -8.082031 L 3.523438 -8.082031 Z M 2.414062 -2.78125 L 3.996094 -6.664062 L 5.578125 -2.78125 Z M 2.414062 -2.78125 "/></g></g></g><g fill="#000000" fill-opacity="1"><g transform="translate(226.574879, 212.676337)"><g><path d="M 4.78125 0.148438 C 7.265625 0.148438 8.9375 -1.730469 8.890625 -4.386719 L 4.503906 -4.386719 L 4.503906 -3.417969 L 7.796875 -3.417969 C 7.585938 -1.894531 6.433594 -0.867188 4.804688 -0.867188 C 2.992188 -0.867188 1.710938 -2.171875 1.710938 -4.042969 C 1.710938 -5.914062 2.980469 -7.21875 4.792969 -7.21875 C 6.039062 -7.21875 7.03125 -6.605469 7.542969 -5.566406 L 8.648438 -5.566406 C 8.128906 -7.160156 6.605469 -8.234375 4.757812 -8.234375 C 2.390625 -8.234375 0.667969 -6.46875 0.667969 -4.042969 C 0.667969 -1.605469 2.402344 0.148438 4.78125 0.148438 Z M 4.78125 0.148438 "/></g></g></g></svg>